# xmcd
#
# Track frame offsets:
#	150
#	15337
#	28505
#	50007
#	60530
#	77535
#	91952
#	104837
#	115427
#	136047
#	149310
#	160250
#	169815
#	179065
#	191852
#	211352
#	234667
#	250660
#
# Disc length: 3480 seconds
#
# Revision: 1
# Processed by: cddbd v1.5.2PL0 Copyright (c) Steve Scherf et al.
# Submitted via: EasyCDDAExtractor 10.0.3.1
#
DISCID=fb0d9612
DTITLE=Ted Hawkins - Love You Most Of All (More Songs From Venice Beach)
DYEAR=1998
DGENRE=Blues
TTITLE0=Bring It On Home To Me
TTITLE1=Green Green Grass Of Home
TTITLE2=Part Time Love
TTITLE3=North To Alaska
TTITLE4=Take Me Home, Country Roads
TTITLE5=Your Cheatin' Heart
TTITLE6=Dock Of The Bay
TTITLE7=Love You Most Of All
TTITLE8=San Francisco
TTITLE9=Chain Gang
TTITLE10=Blowin' In The Wind
TTITLE11=Don't Ever Leave Me
TTITLE12=59th Street Bridge Song
TTITLE13=Sweet Jesus
TTITLE14=You And Me
TTITLE15=You're Beautiful To Me
TTITLE16=Return
TTITLE17=Happy Days
EXTD=YEAR: 1998
EXTT0=
EXTT1=
EXTT2=
EXTT3=
EXTT4=
EXTT5=
EXTT6=
EXTT7=
EXTT8=
EXTT9=
EXTT10=
EXTT11=
EXTT12=
EXTT13=
EXTT14=
EXTT15=
EXTT16=
EXTT17=
PLAYORDER=
